<?xml version="1.0" encoding="UTF-8"?>
<svg version="1.1" xmlns="http://www.w3.org/2000/svg" width="1000" height="1000">
<path d="M0 0 C330 0 660 0 1000 0 C1000 330 1000 660 1000 1000 C670 1000 340 1000 0 1000 C0 670 0 340 0 0 Z " fill="#484848" transform="translate(0,0)"/>
<path d="M0 0 C117.48 0 234.96 0 356 0 C356 9.24 356 18.48 356 28 C385.04 28 414.08 28 444 28 C444 18.76 444 9.52 444 0 C467.1 0 490.2 0 514 0 C514 148.5 514 297 514 450 C600.13 450 686.26 450 775 450 C775 470.13 775 490.26 775 511 C737.71 511 700.42 511 662 511 C662 544 662 577 662 611 C668.6 611 675.2 611 682 611 C689.83700291 611.99863491 696.94218853 614.05436562 704.375 616.6875 C705.38014648 617.04271729 706.38529297 617.39793457 707.42089844 617.76391602 C719.95392103 622.30344398 729.90937452 628.21349413 740 637 C740.62261719 637.47824219 741.24523437 637.95648437 741.88671875 638.44921875 C754.45916181 648.20824798 766.39835208 667.52512292 770 683 C769.7023149 684.34174233 769.37283691 685.67716912 769 687 C768.11646851 687.16604736 768.11646851 687.16604736 767.21508789 687.33544922 C764.49727126 687.84711966 761.77988601 688.36104772 759.0625 688.875 C758.13630859 689.04902344 757.21011719 689.22304688 756.25585938 689.40234375 C751.1310162 690.37336667 746.0411585 691.41236602 740.97045898 692.63720703 C739 693 739 693 735 693 C734.50371094 691.81664062 734.00742187 690.63328125 733.49609375 689.4140625 C729.74447682 680.62588822 726.00713151 672.51638595 720 665 C719.236875 663.948125 718.47375 662.89625 717.6875 661.8125 C713.90288999 657.85186161 709.54722892 655.01918284 705 652 C704.030625 651.278125 703.06125 650.55625 702.0625 649.8125 C684.63390096 639.49761486 660.2918043 639.79571713 641 644 C640.09636719 644.18304687 639.19273437 644.36609375 638.26171875 644.5546875 C626.0231263 647.42393783 615.27627505 653.61411784 606 662 C605.29230469 662.62648438 604.58460938 663.25296875 603.85546875 663.8984375 C590.5766318 676.33941284 585.5275276 692.48861026 581.54931641 709.66552734 C581.03197987 711.86409265 580.48052103 714.05092425 579.91796875 716.23828125 C573.48481115 742.60053984 577.93937615 773.37500694 588.20996094 798.0703125 C588.90544887 799.76905682 589.53978676 801.49256474 590.1640625 803.21875 C592.01216464 808.32732501 593.85431326 811.33636986 598 815 C599.11666333 816.28087853 600.21976305 817.57364964 601.3125 818.875 C607.12381405 825.54165897 612.90297035 830.38525462 621 834 C621 834.66 621 835.32 621 836 C621.928125 836.2475 622.85625 836.495 623.8125 836.75 C627.9023447 837.90206893 631.81943202 839.43132701 635.765625 841 C644.33166861 843.6484386 652.82206944 844.36174556 661.75 844.3125 C662.79478516 844.30831055 663.83957031 844.30412109 664.91601562 844.29980469 C676.499984 844.13166185 686.73172147 842.61849203 697 837 C698.32 837 699.64 837 701 837 C701 836.34 701 835.68 701 835 C702.94140625 833.703125 702.94140625 833.703125 705.5625 832.25 C724.39621984 821.20406305 732.97541881 801.15917553 739 781 C746.8140752 781.59336828 754.02892377 783.457101 761.5625 785.5625 C763.36170898 786.0565332 763.36170898 786.0565332 765.19726562 786.56054688 C768.13323933 787.36764722 771.06734878 788.18092529 774 789 C772.83918468 796.28023538 770.78110103 802.70151275 767.8125 809.4375 C767.4110376 810.35764893 767.0095752 811.27779785 766.59594727 812.22583008 C763.62169594 818.90297407 760.36709169 825.11477711 756 831 C755.39800781 831.82113281 754.79601562 832.64226563 754.17578125 833.48828125 C737.17998159 855.65521671 713.314797 870.2448902 685.5 874.25 C668.14736292 876.21348572 649.14579628 876.59009453 632 873 C630.81535156 872.75507812 629.63070312 872.51015625 628.41015625 872.2578125 C601.72593901 865.92976098 578.71692251 850.5919533 564.21484375 827.109375 C563.81394531 826.41328125 563.41304687 825.7171875 563 825 C558.13103697 825.59619955 553.67209049 826.56976822 549 828 C549 828.66 549 829.32 549 830 C543.45334364 831.46789128 537.90471191 832.92787857 532.35400391 834.38037109 C530.46695065 834.87708766 528.58261401 835.38411999 526.69921875 835.89453125 C514.10743429 839.22503152 501.32278432 841.0249269 488.35546875 842.02734375 C486.86469063 842.14275513 486.86469063 842.14275513 485.34379578 842.26049805 C481.24394734 842.57101794 477.14363613 842.87167984 473.04174805 843.15405273 C469.99908919 843.36696053 466.95875549 843.60187462 463.91796875 843.83984375 C462.99404831 843.89728256 462.07012787 843.95472137 461.11820984 844.01390076 C455.8552241 844.44164913 452.86266494 845.10380658 449 849 C439.87940811 856.56404518 430.81137859 862.18137272 420 867 C418.90816406 867.495 417.81632812 867.99 416.69140625 868.5 C402.23022944 874.56611162 387.16723346 875.5312719 371.6875 875.375 C370.88183594 875.37101196 370.07617188 875.36702393 369.24609375 875.36291504 C356.97472126 875.29181012 344.99950239 874.78003385 333 872 C331.87464844 871.75636719 330.74929688 871.51273438 329.58984375 871.26171875 C314.30837491 867.2661922 295.92603962 858.09123856 287.3046875 844.28515625 C283.75024679 840.76083792 279.90295441 840.76435407 275.0625 840.25 C273.64287964 840.07090088 273.64287964 840.07090088 272.19458008 839.88818359 C267.19421693 839.27749786 262.22015342 838.86585747 257.1875 838.625 C250.11990073 838.16902585 243.69180582 835.98633487 237.04931641 833.69824219 C234.98193922 832.99384634 232.90597512 832.32464327 230.82421875 831.6640625 C225.20450646 829.86027061 220.03327904 828.1457994 215 825 C213.01548229 824.28856912 211.01797888 823.61008664 209 823 C209 822.34 209 821.68 209 821 C208.13375 820.731875 207.2675 820.46375 206.375 820.1875 C203.08208036 819.02888013 200.08872125 817.61790161 197 816 C196.9175 816.639375 196.835 817.27875 196.75 817.9375 C193.6858861 830.44929842 185.87708436 840.9660767 177 850 C176.15308594 850.86625 176.15308594 850.86625 175.2890625 851.75 C168.02418988 858.55417339 158.70871424 862.38188096 149 864 C149 864.66 149 865.32 149 866 C146.64681007 866.46383507 144.29259381 866.92100601 141.9375 867.375 C140.98133789 867.56449219 140.98133789 867.56449219 140.00585938 867.7578125 C94.15688165 876.53273647 46.68113161 871 0 871 C0 786.52 0 702.04 0 615 C36.96 615 73.92 615 112 615 C112 503.79 112 392.58 112 278 C98.14 278 84.28 278 70 278 C70 354.89 70 431.78 70 511 C46.9 511 23.8 511 0 511 C0 342.37 0 173.74 0 0 Z " fill="#999999" transform="translate(112,67)"/>
<path d="M0 0 C117.48 0 234.96 0 356 0 C356 19.47 356 38.94 356 59 C261.62 59 167.24 59 70 59 C70 111.47 70 163.94 70 218 C151.51 218 233.02 218 317 218 C317 237.8 317 257.6 317 278 C235.49 278 153.98 278 70 278 C70 354.89 70 431.78 70 511 C46.9 511 23.8 511 0 511 C0 342.37 0 173.74 0 0 Z " fill="#FEFEFE" transform="translate(112,67)"/>
<path d="M0 0 C43.89 0 87.78 0 133 0 C133.06610349 57.09781867 133.12151467 114.1956014 133.15319599 171.29344738 C133.15693805 178.03026708 133.1608277 184.76708668 133.16479492 191.50390625 C133.1651872 192.17430606 133.16557948 192.84470588 133.16598364 193.53542084 C133.17877106 215.27080711 133.20130751 237.00617001 133.22889166 258.74154211 C133.25798475 281.7075823 133.27598608 304.67361287 133.28226548 327.63967216 C133.28638733 341.4005954 133.29941837 355.16145155 133.3237494 368.92235415 C133.33957448 378.3513196 133.34440769 387.78025022 133.34050413 397.20922799 C133.33857756 402.65393379 133.34158639 408.09852212 133.35761642 413.54320717 C133.3721767 418.52492224 133.37297757 423.50644043 133.36269668 428.48816441 C133.36142536 430.29310839 133.36526363 432.09806449 133.37464955 433.90298451 C133.38664765 436.35206986 133.38022521 438.80043978 133.36914349 441.24951363 C133.37702453 441.95410265 133.38490557 442.65869167 133.39302543 443.38463187 C133.33780709 448.76641143 132.04022716 452.87167212 128.28125 456.79296875 C127.6934375 457.25316406 127.105625 457.71335937 126.5 458.1875 C124.19056149 460.0259346 122.08107002 461.90749553 120 464 C115.9085387 467.06859597 113.07672221 467.59228426 108 467 C104.88584672 465.87764019 101.9508376 464.49450924 99 463 C98.25105469 462.62617187 97.50210938 462.25234375 96.73046875 461.8671875 C96.15941406 461.58101562 95.58835937 461.29484375 95 461 C95 460.34 95 459.68 95 459 C94.10087891 458.61714844 94.10087891 458.61714844 93.18359375 458.2265625 C86.85934988 454.67412498 81.25858648 444.77575944 79 438 C78.87218214 435.32605036 78.95608129 432.67904143 79 430 C78.34 430 77.68 430 77 430 C76.98018066 429.08710205 76.96036133 428.1742041 76.93994141 427.23364258 C76.86163736 423.83217528 76.77493775 420.43113396 76.68261719 417.0300293 C76.64444048 415.56071138 76.60956818 414.09130361 76.578125 412.62182617 C76.53222711 410.50406886 76.47427628 408.3869241 76.4140625 406.26953125 C76.3826416 404.99698486 76.3512207 403.72443848 76.31884766 402.41333008 C76.01578031 399.16893153 75.34996735 396.93378474 74 394 C73.67683487 392.54832171 73.38405917 391.08947735 73.125 389.625 C72.16825962 385.07483315 70.41939728 381.95901373 68 378 C67.54625 376.88625 67.0925 375.7725 66.625 374.625 C59.49543547 358.72058682 46.76169218 350.30467687 31 344 C-15.08724699 333.02684596 -63.62604981 338.39152025 -111 338 C-111 421.82 -111 505.64 -111 592 C-72.39 592 -33.78 592 6 592 C6 592.33 6 592.66 6 593 C-32.94 593 -71.88 593 -112 593 C-112 508.52 -112 424.04 -112 337 C-75.04 337 -38.08 337 0 337 C0 225.79 0 114.58 0 0 Z " fill="#999999" transform="translate(224,345)"/>
<path d="M0 0 C23.1 0 46.2 0 70 0 C70 148.5 70 297 70 450 C156.13 450 242.26 450 331 450 C331 470.13 331 490.26 331 511 C221.77 511 112.54 511 0 511 C0 342.37 0 173.74 0 0 Z " fill="#FEFEFE" transform="translate(556,67)"/>
<path d="M0 0 C83.13636364 0 83.13636364 0 92.1875 3.375 C93.33605469 3.79523438 94.48460937 4.21546875 95.66796875 4.6484375 C117.13054272 13.35424125 134.26741171 31.84115779 143.23347139 52.9720645 C148.84074843 67.80673094 148.55860004 83.9816547 148.45410156 99.57714844 C148.45297038 101.9741565 148.45361221 104.37116595 148.45587158 106.76817322 C148.45700909 113.21112289 148.4336572 119.65376857 148.40557575 126.09664822 C148.38100731 132.16711513 148.379069 138.23760878 148.37496826 144.30811706 C148.36625873 156.31533117 148.33976246 168.32243529 148.30175781 180.32958984 C148.26492431 191.97899848 148.23671439 203.62837687 148.21972656 215.27783203 C148.21865457 216.00572532 148.21758258 216.73361861 148.21647811 217.48356926 C148.20722413 223.81725894 148.19861416 230.15094946 148.19006729 236.48464012 C148.15256923 263.6565304 148.07284684 290.82812822 148 318 C99.16 318 50.32 318 0 318 C0 213.06 0 108.12 0 0 Z " fill="#999999" transform="translate(626,199)"/>
<path d="M0 0 C145.03571429 0 145.03571429 0 168 21 C175.43228396 28.44607299 179.27736204 36.27108903 183 46 C183.34804688 46.82242188 183.69609375 47.64484375 184.0546875 48.4921875 C189.00988051 61.63778218 186.24773814 75.73622891 180.82470703 88.18017578 C174.90493492 101.24292929 164.76319192 111.40455868 152 118 C151.34 118 150.68 118 150 118 C150 118.66 150 119.32 150 120 C150.53625 120.02835938 151.0725 120.05671875 151.625 120.0859375 C163.23996667 121.49960121 176.31929913 130.31369947 184 139 C193.88122284 151.74696355 198.17897496 163.62590335 198.25 179.5 C198.2809375 181.18222656 198.2809375 181.18222656 198.3125 182.8984375 C198.40579176 203.09610314 189.98035686 219.77264037 176 234 C175.43539062 234.5775 174.87078125 235.155 174.2890625 235.75 C167.02418988 242.55417339 157.70871424 246.38188096 148 248 C148 248.66 148 249.32 148 250 C145.45847565 250.47993156 142.91678778 250.95896727 140.375 251.4375 C139.66214844 251.57220703 138.94929687 251.70691406 138.21484375 251.84570312 C137.51230469 251.97783203 136.80976563 252.10996094 136.0859375 252.24609375 C135.1276001 252.42676392 135.1276001 252.42676392 134.14990234 252.61108398 C90.14509508 260.57152663 44.71903073 254 0 254 C0 170.18 0 86.36 0 0 Z " fill="#FEFEFE" transform="translate(113,683)"/>
<path d="M0 0 C0.84175781 -0.020625 1.68351562 -0.04125 2.55078125 -0.0625 C7.37130692 -0.09286552 10.5992878 0.09655067 14.5 3.25 C15.84294481 4.90893182 17.17744688 6.57476605 18.5 8.25 C19.49 8.58 20.48 8.91 21.5 9.25 C26.77945543 16.01430227 28.96422047 22.79110822 28.86914349 31.32466888 C28.87433579 32.4882975 28.87433579 32.4882975 28.87963298 33.67543375 C28.88755303 36.26636379 28.87413264 38.8567308 28.86076355 41.44763184 C28.86207227 43.32719697 28.86469992 45.20676157 28.86853105 47.08632326 C28.87523487 52.24463325 28.86324467 57.40275615 28.84819686 62.56104231 C28.83523934 68.12605243 28.83962576 73.69105204 28.84190369 79.256073 C28.8434766 88.89567056 28.83406549 98.53520719 28.81719017 108.17478943 C28.7928072 122.11199173 28.78499561 136.04916457 28.7812262 149.98638588 C28.77466062 172.59868953 28.75472232 195.21095805 28.72631836 217.82324219 C28.69875873 239.78873526 28.67751099 261.75421966 28.66479492 283.71972656 C28.66440034 284.39697574 28.66400576 285.07422491 28.66359923 285.77199679 C28.65964362 292.57330333 28.65581618 299.37460994 28.65208265 306.17591661 C28.6207673 363.20063382 28.56783568 420.22531527 28.5 477.25 C27.84 477.25 27.18 477.25 26.5 477.25 C26.520625 478.19875 26.54125 479.1475 26.5625 480.125 C25.59817189 487.08801619 18.9403856 492.09781945 13.953125 496.49609375 C5.79159991 500.64148375 -5.65237376 499.80380059 -14.5 498.25 C-20.4912505 495.91830959 -25.42564183 491.64612908 -28.78125 486.15234375 C-29.87023207 483.2700923 -30.09811367 480.29285365 -30.5 477.25 C-30.83 476.92 -31.16 476.59 -31.5 476.25 C-31.60058553 473.85496405 -31.63547341 471.48868134 -31.62863445 469.09304047 C-31.63038749 468.33143808 -31.63214053 467.5698357 -31.63394669 466.78515446 C-31.63864609 464.20029859 -31.63613114 461.615498 -31.63371277 459.03063965 C-31.63557878 457.17178059 -31.63787864 455.31292193 -31.64057809 453.45406389 C-31.64672881 448.32018296 -31.64655867 443.18631823 -31.64538372 438.05243444 C-31.64518052 432.52529998 -31.65069078 426.99817084 -31.65544128 421.47103882 C-31.66376715 410.63090473 -31.66649703 399.79077608 -31.66705366 388.95063907 C-31.66752807 380.14019271 -31.66957904 371.32974816 -31.67275429 362.51930237 C-31.68013188 341.62411261 -31.6862785 320.72892382 -31.68575573 299.8337326 C-31.68574015 299.16487275 -31.68572457 298.4960129 -31.68570852 297.80688456 C-31.68562541 294.41662677 -31.68552637 291.02636899 -31.68542381 287.6361112 C-31.68540387 286.96276559 -31.68538392 286.28941997 -31.68536337 285.59566995 C-31.68532294 284.23399757 -31.68528114 282.87232519 -31.68523798 281.51065282 C-31.68462556 260.33684761 -31.69212407 239.16305843 -31.70581055 217.98925781 C-31.72117311 194.21251156 -31.72976393 170.43577428 -31.72884732 146.65902185 C-31.72851506 134.0658613 -31.73127462 121.4727188 -31.74202538 108.87956238 C-31.75112262 98.15411809 -31.75331214 87.42870004 -31.74651595 76.70325357 C-31.74324635 71.22984308 -31.74320986 65.75648296 -31.7518692 60.28307724 C-31.75971605 55.27167005 -31.75832131 50.26035333 -31.74958507 45.2489484 C-31.74804603 43.43658211 -31.7498814 41.62420913 -31.75544515 39.81185073 C-31.80546282 22.36202818 -31.80546282 22.36202818 -29.5 15.25 C-28.84 14.92 -28.18 14.59 -27.5 14.25 C-27.2525 13.5075 -27.005 12.765 -26.75 12 C-25.06572039 8.29458486 -22.77402674 6.60729925 -19.5 4.25 C-17.1875 3.5625 -17.1875 3.5625 -15.5 3.25 C-15.17 2.59 -14.84 1.93 -14.5 1.25 C-9.82824656 -0.19601892 -4.84635425 0.0296867 0 0 Z " fill="#4C4C4C" transform="translate(501.5,305.75)"/>
<path d="M0 0 C18.48 0 36.96 0 56 0 C56.0677817 57.09780825 56.12151467 114.19560689 56.15319599 171.29344738 C56.15693805 178.03026708 56.1608277 184.76708668 56.16479492 191.50390625 C56.1651872 192.17430606 56.16557948 192.84470588 56.16598364 193.53542084 C56.17877106 215.27080711 56.20130751 237.00617001 56.22889166 258.74154211 C56.25798475 281.7075823 56.27598608 304.67361287 56.28226548 327.63967216 C56.28638733 341.4005954 56.29941837 355.16145155 56.3237494 368.92235415 C56.33957448 378.3513196 56.34440769 387.78025022 56.34050413 397.20922799 C56.33857756 402.65393379 56.34158639 408.09852212 56.35761642 413.54320717 C56.3721767 418.52492224 56.37297757 423.50644043 56.36269668 428.48816441 C56.36142536 430.29310839 56.36526363 432.09806449 56.37464955 433.90298451 C56.38664765 436.35206986 56.38022521 438.80043978 56.36914349 441.24951363 C56.37702453 441.95410265 56.38490557 442.65869167 56.39302543 443.38463187 C56.33780709 448.76641143 55.04022716 452.87167212 51.28125 456.79296875 C50.39953125 457.48326172 50.39953125 457.48326172 49.5 458.1875 C47.19056149 460.0259346 45.08107002 461.90749553 43 464 C38.9085387 467.06859597 36.07672221 467.59228426 31 467 C27.88584672 465.87764019 24.9508376 464.49450924 22 463 C20.87658203 462.43925781 20.87658203 462.43925781 19.73046875 461.8671875 C19.15941406 461.58101562 18.58835937 461.29484375 18 461 C18 460.34 18 459.68 18 459 C17.40058594 458.74476563 16.80117188 458.48953125 16.18359375 458.2265625 C9.85934988 454.67412498 4.25858648 444.77575944 2 438 C1.87218214 435.32605036 1.95608129 432.67904143 2 430 C1.34 430 0.68 430 0 430 C0 288.1 0 146.2 0 0 Z " fill="#7C7C7C" transform="translate(301,345)"/>
<path d="M0 0 C11.88 0 23.76 0 36 0 C36.02505615 4.95008057 36.0501123 9.90016113 36.07592773 15.00024414 C36.15953413 31.38483774 36.24815622 47.7694014 36.33933926 64.15395451 C36.39448275 74.0844772 36.44793241 84.01500349 36.49731445 93.94555664 C36.5403889 102.60679258 36.58672305 111.26800409 36.63687855 119.92920202 C36.66329361 124.50996855 36.68813949 129.09073083 36.70907402 133.67152596 C36.72888258 137.99462814 36.75309248 142.31768463 36.78049088 146.64074516 C36.78973492 148.21635469 36.79745352 149.79197414 36.80341911 151.36759949 C36.23206312 180.42149603 36.23206312 180.42149603 48 206 C48.52464844 206.68320312 49.04929687 207.36640625 49.58984375 208.0703125 C59.16853063 219.92534615 73.1026193 226.00093054 88 228 C92.87819412 228.29787517 97.73867537 228.334574 102.625 228.3125 C103.28985413 228.30968018 103.95470825 228.30686035 104.63970947 228.30395508 C123.31122612 228.18486721 142.38859341 225.56558138 156.40234375 211.890625 C175.27611834 189.5558893 172.46822877 157.67427133 172.50611091 130.35049796 C172.51560904 125.75410732 172.54181977 121.1578096 172.56611633 116.56147766 C172.60947484 107.89236704 172.63820867 99.22327476 172.66143972 90.55408937 C172.68865757 80.6698182 172.73255748 70.78564194 172.77772844 60.90143907 C172.8701348 40.60099745 172.93981422 20.30056448 173 0 C184.55 0 196.1 0 208 0 C208.04532969 21.00299001 208.08209488 42.00593976 208.10362434 63.00896645 C208.11389119 72.7633198 208.12786251 82.51764036 208.15087891 92.27197266 C208.17095466 100.78419818 208.1837497 109.29639993 208.18817699 117.80864847 C208.19076062 122.30639809 208.19673469 126.80407978 208.21146011 131.3018074 C208.44585822 205.89510008 208.44585822 205.89510008 186 230 C185.195625 230.86625 184.39125 231.7325 183.5625 232.625 C182.716875 233.40875 181.87125 234.1925 181 235 C180.12021484 235.88751953 180.12021484 235.88751953 179.22265625 236.79296875 C159.77271962 255.51851295 131.65561426 260.63715481 105.6875 260.375 C104.88183594 260.37101196 104.07617188 260.36702393 103.24609375 260.36291504 C90.97472126 260.29181012 78.99950239 259.78003385 67 257 C65.87464844 256.75636719 64.74929688 256.51273438 63.58984375 256.26171875 C48.0933809 252.20997939 33.83768724 243.70609166 23 232 C22.01 230.94425781 22.01 230.94425781 21 229.8671875 C-1.82178619 203.07196532 -0.61942572 163.70581754 -0.40557575 130.64159918 C-0.38015552 126.03063283 -0.37818875 121.41964989 -0.37347412 116.80862427 C-0.36116136 108.12185421 -0.32850255 99.43529137 -0.28807616 90.74861157 C-0.24298863 80.84012506 -0.22127953 70.93162738 -0.20129442 61.02306342 C-0.15975594 40.68190179 -0.08655471 20.34102333 0 0 Z " fill="#FDFDFD" transform="translate(378,682)"/>
<path d="M0 0 C0.83924011 -0.00718048 1.67848022 -0.01436096 2.54315186 -0.02175903 C18.71075392 -0.05829404 32.24030848 2.95852697 47.0625 9.6875 C47.79049805 10.00702637 48.51849609 10.32655273 49.26855469 10.65576172 C57.55679565 14.3748442 64.25323783 19.75827171 71.0625 25.6875 C71.68511719 26.16574219 72.30773437 26.64398437 72.94921875 27.13671875 C85.52166181 36.89574798 97.46085208 56.21262292 101.0625 71.6875 C100.7648149 73.02924233 100.43533691 74.36466912 100.0625 75.6875 C99.473479 75.79819824 98.88445801 75.90889648 98.27758789 76.02294922 C95.55977126 76.53461966 92.84238601 77.04854772 90.125 77.5625 C89.19880859 77.73652344 88.27261719 77.91054688 87.31835938 78.08984375 C82.1935162 79.06086667 77.1036585 80.09986602 72.03295898 81.32470703 C70.0625 81.6875 70.0625 81.6875 66.0625 81.6875 C65.56621094 80.50414062 65.06992187 79.32078125 64.55859375 78.1015625 C60.80697682 69.31338822 57.06963151 61.20388595 51.0625 53.6875 C49.9178125 52.1096875 49.9178125 52.1096875 48.75 50.5 C44.96538999 46.53936161 40.60972892 43.70668284 36.0625 40.6875 C35.093125 39.965625 34.12375 39.24375 33.125 38.5 C15.69640096 28.18511486 -8.6456957 28.48321713 -27.9375 32.6875 C-28.84113281 32.87054687 -29.74476563 33.05359375 -30.67578125 33.2421875 C-42.9143737 36.11143783 -53.66122495 42.30161784 -62.9375 50.6875 C-63.64519531 51.31398438 -64.35289062 51.94046875 -65.08203125 52.5859375 C-78.3608682 65.02691284 -83.4099724 81.17611026 -87.38818359 98.35302734 C-87.90552013 100.55159265 -88.45697897 102.73842425 -89.01953125 104.92578125 C-95.45268885 131.28803984 -90.99812385 162.06250694 -80.72753906 186.7578125 C-80.03205113 188.45655682 -79.39771324 190.18006474 -78.7734375 191.90625 C-76.92533536 197.01482501 -75.08318674 200.02386986 -70.9375 203.6875 C-69.82083667 204.96837853 -68.71773695 206.26114964 -67.625 207.5625 C-61.81368595 214.22915897 -56.03452965 219.07275462 -47.9375 222.6875 C-47.9375 223.3475 -47.9375 224.0075 -47.9375 224.6875 C-47.009375 224.935 -46.08125 225.1825 -45.125 225.4375 C-41.0351553 226.58956893 -37.11806798 228.11882701 -33.171875 229.6875 C-24.60583139 232.3359386 -16.11543056 233.04924556 -7.1875 233 C-6.14271484 232.99581055 -5.09792969 232.99162109 -4.02148438 232.98730469 C7.562484 232.81916185 17.79422147 231.30599203 28.0625 225.6875 C29.3825 225.6875 30.7025 225.6875 32.0625 225.6875 C32.0625 225.0275 32.0625 224.3675 32.0625 223.6875 C34.00390625 222.390625 34.00390625 222.390625 36.625 220.9375 C55.45871984 209.89156305 64.03791881 189.84667553 70.0625 169.6875 C77.8765752 170.28086828 85.09142377 172.144601 92.625 174.25 C93.82447266 174.57935547 95.02394531 174.90871094 96.25976562 175.24804688 C99.19573933 176.05514722 102.12984878 176.86842529 105.0625 177.6875 C103.90168468 184.96773538 101.84360103 191.38901275 98.875 198.125 C98.4735376 199.04514893 98.0720752 199.96529785 97.65844727 200.91333008 C94.68419594 207.59047407 91.42959169 213.80227711 87.0625 219.6875 C86.15951172 220.91919922 86.15951172 220.91919922 85.23828125 222.17578125 C68.24248159 244.34271671 44.377297 258.9323902 16.5625 262.9375 C-0.79013708 264.90098572 -19.79170372 265.27759453 -36.9375 261.6875 C-38.12214844 261.44257812 -39.30679688 261.19765625 -40.52734375 260.9453125 C-66.79586631 254.71584125 -89.43364736 239.79489945 -104.07177734 216.91455078 C-110.51906179 206.41222597 -115.6612024 195.23687069 -119.9375 183.6875 C-120.17090088 183.06302979 -120.40430176 182.43855957 -120.64477539 181.79516602 C-131.48612527 151.31135778 -131.54340478 106.02499374 -119.9375 75.6875 C-118.95436239 74.01083121 -117.95511894 72.34346783 -116.9375 70.6875 C-116.29965332 69.13844377 -115.6952009 67.57521254 -115.125 66 C-105.19672262 40.67352638 -83.58932985 21.49414761 -59.15039062 10.63427734 C-55.15626008 8.92540287 -51.13635115 7.32164241 -47.0625 5.8125 C-46.32177246 5.52608643 -45.58104492 5.23967285 -44.81787109 4.94458008 C-30.80255879 0.01952053 -14.7091534 0.12318948 0 0 Z " fill="#FDFDFD" transform="translate(780.9375,678.3125)"/>
<path d="M0 0 C29.04 0 58.08 0 88 0 C88 27.06 88 54.12 88 82 C-10.34 82 -108.68 82 -210 82 C-210 81.34 -210 80.68 -210 80 C-210.64324219 80.06703125 -211.28648437 80.1340625 -211.94921875 80.203125 C-220.12532763 80.34308692 -223.95702042 77.10455801 -229.58276367 71.74511719 C-234.82917065 66.49952627 -238.36711575 61.34797911 -240 54 C-240 52.68 -240 51.36 -240 50 C-240.66 50 -241.32 50 -242 50 C-242.02690104 47.20826945 -242.04679053 44.41679652 -242.0625 41.625 C-242.07087891 40.8309375 -242.07925781 40.036875 -242.08789062 39.21875 C-242.11328125 33.2265625 -242.11328125 33.2265625 -241 31 C-161.47 31 -81.94 31 0 31 C0 20.77 0 10.54 0 0 Z " fill="#989898" transform="translate(468,95)"/>
<path d="M0 0 C42.57 0 85.14 0 129 0 C129 33 129 66 129 100 C135.6 100 142.2 100 149 100 C149 100.33 149 100.66 149 101 C148.1248877 101.01981934 147.24977539 101.03963867 146.34814453 101.06005859 C104.70975804 102.05053671 70.7680759 107.33966971 39.9140625 138.078125 C30.68877355 147.92329502 23.28568224 160.13939886 18.80859375 172.84765625 C18.12420905 174.66937591 17.34174866 176.45378505 16.5390625 178.2265625 C14.5485129 182.82782984 13.54572555 187.60357575 12.45117188 192.47851562 C11.20300954 197.79699046 11.20300954 197.79699046 9 200 C7.08984375 200.66796875 7.08984375 200.66796875 4.9375 201.1875 C4.22464844 201.36667969 3.51179687 201.54585937 2.77734375 201.73046875 C2.19082031 201.81941406 1.60429688 201.90835938 1 202 C-0.75336305 200.24663695 -0.12245719 197.94615396 -0.12908131 195.61012262 C-0.12471205 194.44137097 -0.12471205 194.44137097 -0.12025452 193.24900818 C-0.12110894 192.42735973 -0.12196337 191.60571128 -0.12284368 190.75916439 C-0.124501 187.9845222 -0.11897302 185.20993943 -0.11352539 182.43530273 C-0.11324355 180.45488486 -0.1134012 178.47446688 -0.1139679 176.49404907 C-0.11425598 171.09964316 -0.10835748 165.70525926 -0.10139394 160.31085849 C-0.09516222 154.68006421 -0.09455675 149.04926948 -0.09336853 143.41847229 C-0.09025467 132.74766975 -0.08204056 122.0768774 -0.07201904 111.40607935 C-0.05877483 96.99233843 -0.05335843 82.57859475 -0.04751682 68.16484928 C-0.0381007 45.44322522 -0.01818215 22.72162266 0 0 Z " fill="#999999" transform="translate(645,578)"/>
<path d="M0 0 C14.85 0 29.7 0 45 0 C44.67 6.27 44.34 12.54 44 19 C44.66 19 45.32 19 46 19 C46.14695313 19.70125 46.29390625 20.4025 46.4453125 21.125 C48.07609491 28.02302216 50.16424416 32.8173756 55 38 C55.73476562 38.79921875 56.46953125 39.5984375 57.2265625 40.421875 C63.05695917 46.23376248 67.77131467 48.51503946 76 49 C76 49.66 76 50.32 76 51 C174.34 51 272.68 51 374 51 C374 58.26 374 65.52 374 73 C370.77156815 73.00808685 367.54313629 73.01617371 364.21687317 73.02450562 C334.57670086 73.09966132 304.93657251 73.18457184 275.29645901 73.28005161 C271.40768189 73.29256972 267.51890451 73.30500261 263.63012695 73.31738281 C262.85597715 73.31984881 262.08182734 73.3223148 261.28421845 73.32485552 C248.76735072 73.36452406 236.25047402 73.39729746 223.73358027 73.42749982 C210.87959961 73.45866988 198.02565682 73.49730282 185.17171878 73.54279006 C177.24718167 73.57060023 169.32267209 73.59266545 161.39809944 73.60726251 C155.31028315 73.61910154 149.22254912 73.64134936 143.13477516 73.66738319 C140.64561963 73.67642216 138.15644937 73.68214056 135.66727829 73.68421364 C118.22774984 73.60256358 118.22774984 73.60256358 101 76 C100.09125028 76.18924231 99.18250055 76.37848461 98.24621296 76.57346153 C96.15848284 77.0234782 94.07798074 77.50691982 92 78 C92 78.66 92 79.32 92 80 C91.47792969 80.18433594 90.95585937 80.36867188 90.41796875 80.55859375 C83.17011977 83.41457627 77.76714335 87.83734476 72 93 C71.15179688 93.7528125 70.30359375 94.505625 69.4296875 95.28125 C53.90658554 109.87977849 46.06128621 127.62264641 43.375 148.5 C42.92125 151.965 42.4675 155.43 42 159 C28.14 159 14.28 159 0 159 C0 106.53 0 54.06 0 0 Z " fill="#494949" transform="translate(182,126)"/>
<path d="M0 0 C6.62443519 3.3122176 11.31878092 7.56129956 15.078125 13.9765625 C15.078125 14.6365625 15.078125 15.2965625 15.078125 15.9765625 C15.738125 15.9765625 16.398125 15.9765625 17.078125 15.9765625 C19.20677989 21.20363787 19.35610158 25.73480949 19.31863403 31.27792358 C19.32034288 32.20593297 19.32205173 33.13394235 19.32381237 34.09007323 C19.32710245 37.19473063 19.31611139 40.29917115 19.30517578 43.40380859 C19.30461156 45.63126622 19.30492843 47.85872423 19.30606079 50.08618164 C19.30663489 56.13112067 19.2948712 62.17598042 19.28091288 68.22090101 C19.26841515 74.53899706 19.26723577 80.85709491 19.26486206 87.17520142 C19.25935101 97.77908868 19.24685635 108.38294462 19.22900391 118.98681641 C19.21063743 129.90738785 19.19648468 140.82795138 19.18798828 151.74853516 C19.18720011 152.75876215 19.18720011 152.75876215 19.18639602 153.78939776 C19.18378589 157.16817401 19.18125848 160.54695031 19.17877221 163.92572665 C19.15804895 191.94269217 19.12268251 219.95962552 19.078125 247.9765625 C0.72668625 248.85099425 -17.55339662 249.10614261 -35.921875 248.9765625 C-36.03876922 219.97788884 -36.1268932 190.9792506 -36.18093586 161.98038864 C-36.18603494 159.29779796 -36.19124154 156.6152075 -36.1965332 153.93261719 C-36.19784476 153.2658672 -36.19915631 152.59911722 -36.2005076 151.91216269 C-36.22222957 141.13403216 -36.26163321 130.35603577 -36.30763898 119.57798466 C-36.35449331 108.508332 -36.38181534 97.4387531 -36.39231747 86.3690064 C-36.3988256 80.15560718 -36.41408023 73.94251162 -36.45052528 67.7292099 C-36.48458261 61.8752867 -36.49490812 56.02179088 -36.48741341 50.16777802 C-36.48878359 48.02486851 -36.49865748 45.88194401 -36.51790237 43.73912048 C-36.63543733 29.97134957 -36.38554137 17.90177052 -26.421875 7.2890625 C-25.6896875 6.48082031 -24.9575 5.67257812 -24.203125 4.83984375 C-21.7071814 2.80120488 -20.0912264 2.3057733 -16.921875 1.9765625 C-16.921875 1.3165625 -16.921875 0.6565625 -16.921875 -0.0234375 C-11.27629671 -1.90529693 -5.6408869 -1.97581867 0 0 Z " fill="#7B7B7B" transform="translate(680.921875,268.0234375)"/>
<path d="M0 0 C9.57 0 19.14 0 29 0 C29 142.89 29 285.78 29 433 C21.12663429 431.87523347 21.12663429 431.87523347 17.4375 428.75 C16.68339844 428.11964844 15.92929687 427.48929688 15.15234375 426.83984375 C14.44207031 426.23269531 13.73179687 425.62554688 13 425 C12.07380859 424.29037109 12.07380859 424.29037109 11.12890625 423.56640625 C8.78629968 421.76310479 7.1863673 420.49254214 6.125 417.6875 C6.08375 417.130625 6.0425 416.57375 6 416 C5.34 416 4.68 416 4 416 C2.02905192 411.07262981 1.8200072 407.21979128 2 402 C1.34 402 0.68 402 0 402 C0 269.34 0 136.68 0 0 Z " fill="#4C4C4C" transform="translate(327,345)"/>
<path d="M0 0 C27.75975259 -0.12032643 27.75975259 -0.12032643 39.63085938 -0.14648438 C47.717753 -0.16438852 55.80454512 -0.18507137 63.89135742 -0.22631836 C70.41416205 -0.25957205 76.93689816 -0.27687474 83.45978355 -0.28463173 C85.94314997 -0.29015682 88.42651066 -0.30094583 90.90983009 -0.31719017 C94.39940812 -0.33910033 97.88853763 -0.3419612 101.37817383 -0.34057617 C102.90380196 -0.35675491 102.90380196 -0.35675491 104.46025085 -0.3732605 C117.32633663 -0.31832882 129.95692465 3.63279668 139.5390625 12.47265625 C148.03904181 21.35899825 150.45845406 34.23789317 150.26171875 46.1328125 C149.88659461 50.24238146 148.71180806 53.24719001 147 57 C146.690625 57.86625 146.38125 58.7325 146.0625 59.625 C143.68812169 64.93243387 140.31814691 69.13639487 136 73 C135.34 73 134.68 73 134 73 C134 73.66 134 74.32 134 75 C125.05195885 81.13579965 116.01805604 82.29804323 105.46508789 82.22705078 C104.32289795 82.22734283 103.18070801 82.22763489 102.00390625 82.22793579 C98.24341125 82.22654684 94.48311647 82.21100585 90.72265625 82.1953125 C88.10949309 82.19158083 85.49632852 82.18873459 82.88316345 82.18673706 C76.71744241 82.18053516 70.55179277 82.16414192 64.38610309 82.14403808 C56.67343142 82.11943913 48.96074802 82.10853113 41.24804688 82.09765625 C27.49864237 82.07820948 13.74939356 82.03813979 0 82 C0 54.94 0 27.88 0 0 Z " fill="#989898" transform="translate(626,95)"/>
<path d="M0 0 C12.16875 -0.04125 24.3375 -0.0825 36.875 -0.125 C42.58079346 -0.15231201 42.58079346 -0.15231201 48.40185547 -0.18017578 C53.14477539 -0.18920898 53.14477539 -0.18920898 55.38406372 -0.19088745 C56.90661803 -0.19390447 58.42916841 -0.20082145 59.95169067 -0.21115112 C74.64318026 -0.30560632 90.08945111 -0.24266918 104 5 C104 5.66 104 6.32 104 7 C105.32837891 7.38285156 105.32837891 7.38285156 106.68359375 7.7734375 C114.80840301 10.77837284 121.39299023 17.159858 125 25 C127.76489394 31.24636186 128.54822859 36.44173043 128.5 43.25 C128.49500488 44.17514404 128.49000977 45.10028809 128.48486328 46.0534668 C128.18242666 57.95591217 123.622586 67.28564607 115.30859375 75.71484375 C111.52040134 79.18099743 107.84422082 81.18341719 103 83 C101.88625 83.515625 100.7725 84.03125 99.625 84.5625 C92.47782368 87.39672509 85.63866548 88.29735864 77.99194336 88.22705078 C76.69677591 88.22741239 76.69677591 88.22741239 75.37544346 88.2277813 C72.61346764 88.22630271 69.85177052 88.21113754 67.08984375 88.1953125 C65.37146128 88.19236754 63.65307701 88.19032989 61.93469238 88.18920898 C55.60226735 88.1787741 49.26988086 88.15085159 42.9375 88.125 C21.6834375 88.063125 21.6834375 88.063125 0 88 C0 58.96 0 29.92 0 0 Z " fill="#494949" transform="translate(147,820)"/>
<path d="M0 0 C1.26457031 0.00306152 2.52914062 0.00612305 3.83203125 0.00927734 C4.90435187 61.54686406 4.90435187 61.54686406 -1.16796875 85.00927734 C-1.82796875 85.00927734 -2.48796875 85.00927734 -3.16796875 85.00927734 C-3.25046875 85.77240234 -3.33296875 86.53552734 -3.41796875 87.32177734 C-4.4557474 92.42418904 -6.31083907 97.15482674 -8.16796875 102.00927734 C-8.82796875 102.00927734 -9.48796875 102.00927734 -10.16796875 102.00927734 C-10.16796875 103.32927734 -10.16796875 104.64927734 -10.16796875 106.00927734 C-10.82796875 106.00927734 -11.48796875 106.00927734 -12.16796875 106.00927734 C-12.39742187 106.84458984 -12.626875 107.67990234 -12.86328125 108.54052734 C-14.41519832 112.66658232 -16.52454923 115.91656083 -19.04296875 119.50927734 C-19.52693115 120.2048877 -20.01089355 120.90049805 -20.50952148 121.6171875 C-32.10506332 137.99940175 -45.94179094 152.29040339 -62.53515625 163.62646484 C-64.47822301 164.94492103 -64.47822301 164.94492103 -64.41796875 167.69677734 C-64.29421875 168.84146484 -64.29421875 168.84146484 -64.16796875 170.00927734 C-67.33965248 168.42343548 -67.68225252 165.59359228 -68.8984375 162.36865234 C-69.84049782 159.87581581 -70.82166226 157.42181885 -71.84375 154.96240234 C-79.12002255 137.01557442 -81.51782696 119.03233551 -81.54296875 99.75927734 C-81.54482178 98.47504883 -81.5466748 97.19082031 -81.54858398 95.86767578 C-81.41885382 84.98168459 -79.98324028 74.76970733 -76.73046875 64.38427734 C-76.28239736 62.92078304 -75.83447978 61.45724163 -75.38671875 59.99365234 C-75.17402344 59.3059375 -74.96132813 58.61822266 -74.7421875 57.90966797 C-74.25923446 56.31132339 -73.81801568 54.70045287 -73.38671875 53.08740234 C-68.4579526 34.66320506 -54.84453791 19.71800916 -38.80078125 10.02099609 C-26.88886179 3.19094265 -13.66393489 -0.03308037 0 0 Z " fill="#999999" transform="translate(770.16796875,707.99072265625)"/>
<path d="M0 0 C0.7940625 -0.00386719 1.588125 -0.00773437 2.40625 -0.01171875 C10.35940947 0.00153652 10.35940947 0.00153652 14 1.125 C14.495 2.115 14.495 2.115 15 3.125 C16.36125 3.7746875 16.36125 3.7746875 17.75 4.4375 C21.22870768 6.24375206 23.35617468 8.2608559 26 11.125 C26.66 11.785 27.32 12.445 28 13.125 C28 14.115 28 15.105 28 16.125 C28.99 16.455 29.98 16.785 31 17.125 C31.6953125 19.15625 31.6953125 19.15625 32.125 21.625 C32.47887416 24.66430366 32.47887416 24.66430366 34 27.125 C34.10081801 29.89023465 34.13544687 32.63058756 34.12863445 35.39637947 C34.13038749 36.27845558 34.13214053 37.16053168 34.13394669 38.06933737 C34.13864724 41.06399116 34.13613085 44.05859725 34.13371277 47.05325317 C34.13557872 49.20639838 34.13787855 51.35954324 34.14057809 53.51268756 C34.14672947 59.45994086 34.1465586 65.40718017 34.14538372 71.35443592 C34.14518054 77.75679558 34.15069053 84.15915064 34.15544128 90.56150818 C34.16376714 103.11749844 34.16650994 115.67348387 34.16705366 128.22947665 C34.16751261 138.43248416 34.16956782 148.63549015 34.17275429 158.83849716 C34.17365179 161.77187534 34.17454161 164.70525352 34.17542917 167.6386317 C34.17576074 168.73241277 34.17576074 168.73241277 34.17609901 169.84829042 C34.18225687 190.37107452 34.18619921 210.89385808 34.18575573 231.41664314 C34.18573236 232.5782332 34.18573236 232.5782332 34.18570852 233.76328972 C34.18562541 237.68851843 34.18552637 241.61374714 34.18542381 245.53897585 C34.18540387 246.31858257 34.18538392 247.0981893 34.18536337 247.90142047 C34.18532294 249.47797807 34.18528114 251.05453567 34.18523798 252.63109327 C34.18462535 277.15478425 34.19212804 301.67846141 34.20581055 326.20214844 C34.22116591 353.73570558 34.22977706 381.26925363 34.22884732 408.80281532 C34.22877269 411.73807963 34.22872399 414.67334394 34.22869301 417.60860825 C34.22868135 418.33137749 34.2286697 419.05414673 34.22865769 419.79881806 C34.22862689 431.43982647 34.23501816 443.08082288 34.24362527 454.72182772 C34.2520959 466.42015983 34.25292459 478.11847045 34.24651595 489.81680436 C34.24324187 496.15677859 34.24322594 502.49670932 34.2518692 508.83667946 C34.25969622 514.63749159 34.25834182 520.43822545 34.24958507 526.23903559 C34.24804164 528.34073176 34.2498977 530.44243366 34.25544515 532.54412307 C34.26247501 535.39570209 34.25723527 538.24700424 34.24888897 541.09857368 C34.25385715 541.91897141 34.25882533 542.73936913 34.26394406 543.58462739 C34.22654366 549.60822736 33.88981085 555.08599356 29.625 559.6875 C28.75875 560.491875 27.8925 561.29625 27 562.125 C26.38125 563.115 25.7625 564.105 25.125 565.125 C21.97671641 569.56963566 18.16712129 572.40262624 13 574.125 C11.08093083 574.20766486 9.15910526 574.23240663 7.23828125 574.22265625 C6.12001953 574.21943359 5.00175781 574.21621094 3.84960938 574.21289062 C2.68236328 574.20451172 1.51511719 574.19613281 0.3125 574.1875 C-0.86634766 574.18298828 -2.04519531 574.17847656 -3.25976562 574.17382812 C-6.17322789 574.16203273 -9.08658863 574.1455727 -12 574.125 C-12 573.465 -12 572.805 -12 572.125 C-13.65 571.795 -15.3 571.465 -17 571.125 C-17 570.465 -17 569.805 -17 569.125 C-18.32 569.125 -19.64 569.125 -21 569.125 C-21 568.465 -21 567.805 -21 567.125 C-21.99 567.125 -22.98 567.125 -24 567.125 C-29 561.89244186 -29 561.89244186 -29 558.125 C-29.66 558.125 -30.32 558.125 -31 558.125 C-33.43051557 551.91072325 -34.4342935 546.55239586 -34.3719368 539.90047264 C-34.37569793 539.01254253 -34.37945906 538.12461241 -34.38333416 537.20977533 C-34.39225635 534.24322913 -34.37984862 531.27716656 -34.36749268 528.31063843 C-34.36951771 526.15883721 -34.37285788 524.00703689 -34.37739825 521.85523951 C-34.38604261 515.94881101 -34.37598412 510.04253988 -34.36285591 504.13612509 C-34.35195665 497.76389841 -34.35837108 491.39168624 -34.36264038 485.01945496 C-34.36762422 473.97972023 -34.3616308 462.94003701 -34.34775543 451.90031052 C-34.33321679 440.31915289 -34.32446855 428.73801597 -34.32357025 417.15684891 C-34.32350916 416.43619677 -34.32344806 415.71554462 -34.32338512 414.97305454 C-34.3231556 412.04767551 -34.32296842 409.12229649 -34.32283698 406.19691746 C-34.32162593 379.54304845 -34.30593402 352.88920837 -34.28125 326.23535156 C-34.25795385 301.07486751 -34.24378276 275.91440101 -34.24023438 250.75390625 C-34.24012286 249.9786683 -34.24001134 249.20343035 -34.23989645 248.40470034 C-34.23944759 245.27922957 -34.23900561 242.1537588 -34.23856402 239.02828804 C-34.23834364 237.47071477 -34.23812235 235.91314151 -34.23790014 234.35556825 C-34.23767878 232.80180879 -34.23746001 231.24804933 -34.23724384 229.69428987 C-34.23372892 204.95372628 -34.22226829 180.21316598 -34.2094375 155.4726057 C-34.20571887 148.22954747 -34.20245399 140.98648946 -34.20018864 133.74343061 C-34.19537987 118.51209063 -34.18814958 103.28076254 -34.17204097 88.04942964 C-34.16542995 81.7499191 -34.1603674 75.4504179 -34.15958023 69.1509037 C-34.15879421 63.38743566 -34.1533964 57.62399126 -34.14426073 51.86053057 C-34.14174943 49.77253409 -34.14092068 47.68453479 -34.14191952 45.59653704 C-34.14301324 42.76361195 -34.13799815 39.93076125 -34.13142776 37.09784508 C-34.13408197 35.8754917 -34.13408197 35.8754917 -34.1367898 34.62844431 C-34.08477433 21.51690211 -34.08477433 21.51690211 -30 16.125 C-29.34 16.125 -28.68 16.125 -28 16.125 C-27.90203125 15.52945312 -27.8040625 14.93390625 -27.703125 14.3203125 C-26.46956129 10.46885247 -23.210112 8.40729482 -20 6.125 C-18.34089996 5.43971955 -16.67667436 4.76608137 -15 4.125 C-14.67 3.135 -14.34 2.145 -14 1.125 C-9.32415345 -0.06281586 -4.78859821 -0.0233211 0 0 Z M-12 39.125 C-12.33 39.785 -12.66 40.445 -13 41.125 C-14.73683204 41.84594915 -16.47405018 42.56601332 -18.21484375 43.27734375 C-20.73023206 44.47174039 -22.28520354 45.94852757 -24 48.125 C-24.63292383 50.23780345 -24.63292383 50.23780345 -25 52.125 C-25.99 52.62 -25.99 52.62 -27 53.125 C-29.85795965 61.9414031 -29.27536695 71.19743556 -29.24723816 80.36022949 C-29.24882738 82.23169498 -29.2512921 84.10315989 -29.25455457 85.9746232 C-29.26095724 91.10589788 -29.25490834 96.23709344 -29.24679029 101.3683629 C-29.24020497 106.90611043 -29.24516348 112.44384924 -29.24867249 117.9815979 C-29.25371107 128.82330888 -29.24807773 139.66498933 -29.23882218 150.50669652 C-29.22843767 163.12400237 -29.22850836 175.74130161 -29.22899476 188.35861093 C-29.22951037 211.54029049 -29.21947666 234.72195471 -29.20449232 257.903628 C-29.19085559 279.07865796 -29.18463162 300.25367662 -29.18530273 321.42871094 C-29.18534315 322.78951102 -29.18538351 324.15031111 -29.18542381 325.5111112 C-29.18544416 326.18385873 -29.18546452 326.85660625 -29.18548548 327.54974007 C-29.18558627 330.93607092 -29.18567686 334.32240176 -29.18575573 337.7087326 C-29.18577244 338.37676838 -29.18578916 339.04480415 -29.18580638 339.73308342 C-29.1862494 361.21266493 -29.17913404 382.69224443 -29.17139288 404.17182431 C-29.16837107 412.9764831 -29.16731269 421.78114092 -29.16686058 430.58580017 C-29.16618012 441.30249206 -29.16173863 452.01917496 -29.15252777 462.73586303 C-29.14789548 468.20832269 -29.14486954 473.68077082 -29.14612198 479.15323257 C-29.14721103 484.15401236 -29.14373563 489.15476656 -29.13647345 494.155541 C-29.13464909 495.97290808 -29.13454043 497.79027778 -29.13624074 499.60764498 C-29.13828353 502.06114121 -29.13428183 504.51455174 -29.12863445 506.96804047 C-29.13171743 508.04798721 -29.13171743 508.04798721 -29.13486269 509.14975107 C-29.40137748 512.41855728 -29.40137748 512.41855728 -28 515.125 C-27.73136541 516.53825154 -27.48497293 517.95576353 -27.25 519.375 C-26.22849685 524.03423021 -24.77982209 526.06897363 -21 529.125 C-20.4006665 529.69669922 -19.80133301 530.26839844 -19.18383789 530.85742188 C-12.85777828 536.50164404 -7.80935266 537.20897773 0.5 537 C1.57636719 537.02707031 2.65273438 537.05414062 3.76171875 537.08203125 C11.85775967 537.01300289 16.3051002 534.80464425 22 529.125 C24.37407695 526.78125777 24.37407695 526.78125777 26.0625 524.5 C26.63097656 523.78585937 27.19945312 523.07171875 27.78515625 522.3359375 C29.21306651 519.73723266 29.24087883 518.04629641 29 515.125 C29.66 515.125 30.32 515.125 31 515.125 C31.09153845 457.45831808 31.16203816 399.7916428 31.20426132 342.12490258 C31.20925061 335.31813154 31.21443683 328.51136066 31.21972656 321.70458984 C31.2202496 321.02723885 31.22077263 320.34988786 31.22131152 319.65201108 C31.23835309 297.70206533 31.26839548 275.75216081 31.30518888 253.80224003 C31.34400447 230.60377897 31.36798688 207.40534244 31.37635398 184.20684659 C31.38184475 170.31079097 31.39919229 156.41485371 31.43166587 142.51883452 C31.45279576 132.99218602 31.45920347 123.46559879 31.45400551 113.93892856 C31.45144139 108.44103508 31.45539569 102.94334855 31.4768219 97.44549179 C31.49630104 92.4104746 31.49726097 87.37580335 31.48359558 82.34077017 C31.48190687 80.52094726 31.48696938 78.70110267 31.49953273 76.88132234 C31.57144845 65.81970934 31.38072541 56.03594651 24 47.125 C22.34051852 46.11312105 20.67419438 45.1123454 19 44.125 C18.34 43.135 17.68 42.145 17 41.125 C12.46789592 37.39472972 8.08159529 37.73823809 2.5 37.875 C1.23736328 37.88273437 1.23736328 37.88273437 -0.05078125 37.890625 C-6.10060344 37.93069255 -6.10060344 37.93069255 -12 39.125 Z " fill="#7B7B7B" transform="translate(499,267.875)"/>
<path d="M0 0 C11.611875 -0.020625 23.22375 -0.04125 35.1875 -0.0625 C38.8280542 -0.071604 42.4686084 -0.08070801 46.21948242 -0.09008789 C50.7310791 -0.09460449 50.7310791 -0.09460449 52.85591125 -0.09544373 C54.31200976 -0.09696011 55.76810716 -0.10043624 57.22419739 -0.10557556 C83.85898647 -0.19472712 83.85898647 -0.19472712 93.1875 3.5 C93.85894043 3.76280762 94.53038086 4.02561523 95.22216797 4.29638672 C104.81682133 8.3200998 111.69557526 14.9745601 116.0078125 24.48828125 C118.00901423 31.57127477 117.58343217 38.7257181 117 46 C116.92652344 46.99773438 116.85304688 47.99546875 116.77734375 49.0234375 C115.57862261 57.75894555 110.32560074 64.53965542 103.5 69.875 C93.69696677 76.24997867 80.74577628 78.17263193 69.25048828 78.11352539 C68.48652678 78.11364593 67.72256527 78.11376646 66.93545341 78.11389065 C64.48037607 78.1131486 62.02537614 78.10555284 59.5703125 78.09765625 C58.04744503 78.09618464 56.52457706 78.09516528 55.00170898 78.09460449 C49.37613157 78.08937705 43.75056501 78.07541578 38.125 78.0625 C25.54375 78.041875 12.9625 78.02125 0 78 C0 52.26 0 26.52 0 0 Z " fill="#484848" transform="translate(147,712)"/>
<path d="M0 0 C10.9940712 0 14.64068742 1.63789797 22 8.6875 C25 11.70758929 25 11.70758929 25 14 C25.99 14.33 26.98 14.66 28 15 C29.57753082 18.65826348 29.13577742 22.85098292 29.12025452 26.77008057 C29.12110894 27.55754032 29.12196337 28.34500007 29.12284368 29.15632224 C29.12449195 31.79727176 29.11898777 34.43815789 29.11352539 37.07910156 C29.11324335 38.97129312 29.11340158 40.86348478 29.1139679 42.75567627 C29.11425522 47.8957809 29.10836894 53.03586228 29.10139394 58.17596149 C29.09514963 63.54648534 29.09455575 68.9170097 29.09336853 74.28753662 C29.0902584 84.45887437 29.08204928 94.63020139 29.07201904 104.80153441 C29.06084805 116.38060736 29.05534496 127.95968081 29.05032361 139.5387578 C29.03986642 163.35917802 29.02207206 187.17958796 29 211 C19.43 211 9.86 211 0 211 C0 141.37 0 71.74 0 0 Z " fill="#4C4C4C" transform="translate(646,305)"/>
<path d="M0 0 C9.9 0 19.8 0 30 0 C30.13560472 19.51525841 30.24606195 39.03013353 30.31087303 58.54574394 C30.34176998 67.60781636 30.38387045 76.6695746 30.45263672 85.73144531 C30.51256671 93.63267869 30.55117939 101.53368446 30.56453097 109.43513882 C30.57233189 113.61641767 30.5905775 117.79704553 30.63438034 121.97811508 C30.67533725 125.91975239 30.6876232 129.86047532 30.67864609 133.80230522 C30.68028652 135.24300685 30.69208469 136.68374146 30.71523285 138.12425804 C30.85987689 147.59617643 29.52778498 153.33068125 24 161 C22.79203498 163.35647545 21.8210714 165.73246205 20.8125 168.1875 C20.34457031 169.31542969 19.87664063 170.44335938 19.39453125 171.60546875 C18.93433594 172.72566406 18.47414063 173.84585938 18 175 C17.48953125 176.1240625 16.9790625 177.248125 16.453125 178.40625 C14.5911681 183.01108964 13.53641923 187.64502438 12.45117188 192.47851562 C11.20300954 197.79699046 11.20300954 197.79699046 9 200 C7.08984375 200.66796875 7.08984375 200.66796875 4.9375 201.1875 C4.22464844 201.36667969 3.51179687 201.54585937 2.77734375 201.73046875 C2.19082031 201.81941406 1.60429688 201.90835938 1 202 C-0.75336305 200.24663695 -0.12245719 197.94615396 -0.12908131 195.61012262 C-0.12471205 194.44137097 -0.12471205 194.44137097 -0.12025452 193.24900818 C-0.12110894 192.42735973 -0.12196337 191.60571128 -0.12284368 190.75916439 C-0.124501 187.9845222 -0.11897302 185.20993943 -0.11352539 182.43530273 C-0.11324355 180.45488486 -0.1134012 178.47446688 -0.1139679 176.49404907 C-0.11425598 171.09964316 -0.10835748 165.70525926 -0.10139394 160.31085849 C-0.09516222 154.68006421 -0.09455675 149.04926948 -0.09336853 143.41847229 C-0.09025467 132.74766975 -0.08204056 122.0768774 -0.07201904 111.40607935 C-0.06085958 99.26118582 -0.05534788 87.1162918 -0.05032361 74.97139442 C-0.03985799 49.98092376 -0.02205716 24.99046288 0 0 Z " fill="#4D4D4D" transform="translate(645,578)"/>
<path d="M0 0 C8.25 0 16.5 0 25 0 C25.33967197 15.92591202 25.61551066 31.84891798 25.77718258 47.77740669 C25.85427286 55.17470823 25.95919719 62.56958692 26.1315918 69.96533203 C26.28192582 76.41779701 26.37805962 82.86850694 26.41132742 89.32267463 C26.43075596 92.73582447 26.47578753 96.14395791 26.58595085 99.55548477 C27.22989109 121.98114051 27.22989109 121.98114051 21.77175903 128.62884521 C18.73320484 131.69322302 15.41848137 134.1619954 11.86213875 136.58849716 C8.73496975 138.95889406 6.41037509 141.93003601 4 145 C2.68 146.65 1.36 148.3 0 150 C0 100.5 0 51 0 0 Z " fill="#7C7C7C" transform="translate(675,578)"/>
<path d="M0 0 C11.611875 -0.020625 23.22375 -0.04125 35.1875 -0.0625 C38.8280542 -0.071604 42.4686084 -0.08070801 46.21948242 -0.09008789 C50.7310791 -0.09460449 50.7310791 -0.09460449 52.85591125 -0.09544373 C54.31200976 -0.09696011 55.76810716 -0.10043624 57.22419739 -0.10557556 C83.85898647 -0.19472712 83.85898647 -0.19472712 93.1875 3.5 C93.85894043 3.76280762 94.53038086 4.02561523 95.22216797 4.29638672 C104.81682133 8.3200998 111.69557526 14.9745601 116.0078125 24.48828125 C118.00901423 31.57127477 117.58343217 38.7257181 117 46 C116.92652344 46.99773438 116.85304688 47.99546875 116.77734375 49.0234375 C115.58225428 57.73248029 110.33750848 64.51668807 103.5625 69.875 C97.04208917 74.1511764 89.54045201 75.49378068 82 77 C81.53815593 75.06333386 81.08075974 73.125607 80.625 71.1875 C80.36976563 70.10855469 80.11453125 69.02960938 79.8515625 67.91796875 C79.56332416 66.61293977 79.27991567 65.30683939 79 64 C78.745672 62.83235107 78.745672 62.83235107 78.48620605 61.64111328 C77.07356886 54.61684923 76.73465796 47.92109117 76.8046875 40.76953125 C76.80670166 39.77804077 76.80871582 38.78655029 76.81079102 37.76501465 C76.82113703 34.11412835 76.84905808 30.46330879 76.875 26.8125 C76.936875 14.5303125 76.936875 14.5303125 77 2 C51.92 1.67 26.84 1.34 1 1 C1 26.41 1 51.82 1 78 C0.67 78 0.34 78 0 78 C0 52.26 0 26.52 0 0 Z " fill="#989898" transform="translate(147,712)"/>
<path d="M0 0 C4.2537526 2.03576934 8.36624539 4.14182611 11.20703125 8.015625 C11.20703125 9.005625 11.20703125 9.995625 11.20703125 11.015625 C12.19703125 11.345625 13.18703125 11.675625 14.20703125 12.015625 C14.70203125 13.995625 14.70203125 13.995625 15.20703125 16.015625 C-0.30296875 16.015625 -15.81296875 16.015625 -31.79296875 16.015625 C-30.66628654 10.38221394 -29.92243232 9.78127655 -25.60546875 6.390625 C-24.66316406 5.63523437 -23.72085937 4.87984375 -22.75 4.1015625 C-15.4447235 -1.05169728 -8.66842985 -3.05516688 0 0 Z " fill="#7D7D7D" transform="translate(336.79296875,267.984375)"/>
<path d="M0 0 C0 0.99 0 1.98 0 3 C-0.66 3 -1.32 3 -2 3 C-1.979375 4.11375 -1.95875 5.2275 -1.9375 6.375 C-2 10 -2 10 -3 12 C-3.09737684 14.44355243 -3.13379163 16.85854417 -3.12584114 19.30235386 C-3.12729458 20.06750686 -3.12874802 20.83265985 -3.13024551 21.62099931 C-3.13392533 24.21183497 -3.13040995 26.80261254 -3.12698364 29.39344788 C-3.12813468 31.25887137 -3.12972208 33.12429464 -3.13171089 34.98971742 C-3.1359066 40.13678557 -3.13381243 45.28383531 -3.13072467 50.43090355 C-3.12847179 55.97354455 -3.13194961 61.51618227 -3.13470459 67.05882263 C-3.13916239 77.92487892 -3.1381858 88.79092831 -3.13529195 99.65698487 C-3.13303807 108.48368484 -3.13272532 117.31038288 -3.13381577 126.13708305 C-3.133969 127.39098663 -3.13412223 128.64489021 -3.13428011 129.93679086 C-3.13459982 132.48366607 -3.13492403 135.03054127 -3.1352527 137.57741647 C-3.13802603 160.80379676 -3.13514493 184.03017301 -3.1299101 207.25655245 C-3.12516366 228.47743347 -3.12558935 249.69830849 -3.13037109 270.91918945 C-3.1357209 294.74091262 -3.13783338 318.56263247 -3.13475883 342.38435644 C-3.13444026 344.9218152 -3.13412589 347.45927395 -3.13381577 349.99673271 C-3.13366149 351.24537987 -3.13350721 352.49402702 -3.13334826 353.78051196 C-3.13248288 362.60262324 -3.13394644 371.42473239 -3.13629532 380.24684334 C-3.13909249 390.98932183 -3.1383568 401.731793 -3.13301457 412.47427065 C-3.13037652 417.96085947 -3.12937426 423.44743607 -3.13266373 428.93402481 C-3.13562453 433.94803516 -3.13403753 438.96202187 -3.12868617 443.97603004 C-3.12756106 445.79831763 -3.12815522 447.62060717 -3.13056196 449.44289351 C-3.13356417 451.9031206 -3.13052333 454.36326468 -3.12584114 456.82348728 C-3.12818231 457.54545271 -3.13052347 458.26741814 -3.13293558 459.01126131 C-3.40216104 462.28709418 -3.40216104 462.28709418 -2 465 C-1.95936168 466.66617115 -1.957279 468.33388095 -2 470 C-2.66 470 -3.32 470 -4 470 C-5.23154411 466.1792624 -5.14120179 462.38020752 -5.13142776 458.4114275 C-5.1334804 457.63961009 -5.13553303 456.86779268 -5.13764787 456.07258686 C-5.14332887 453.47104891 -5.14185926 450.86956371 -5.14044189 448.26802063 C-5.1430249 446.39007306 -5.14603788 444.51212603 -5.1494453 442.63417977 C-5.15752615 437.46147229 -5.15930547 432.28877867 -5.16004276 427.11606562 C-5.16189143 421.54194746 -5.16943783 415.96783653 -5.17617798 410.39372253 C-5.18976959 398.1995301 -5.19578732 386.00534095 -5.20018864 373.81114221 C-5.20294969 366.1994083 -5.20718679 358.58767566 -5.21169281 350.97594261 C-5.22388661 329.90820682 -5.23422106 308.84047186 -5.2375679 287.77273273 C-5.23778953 286.41028204 -5.23801132 285.04783134 -5.23823325 283.68538065 C-5.23845389 282.31963848 -5.23867438 280.95389631 -5.2388947 279.58815414 C-5.23933725 276.84823883 -5.23978437 274.10832351 -5.24023438 271.3684082 C-5.24034377 270.68906831 -5.24045316 270.00972842 -5.24056586 269.30980247 C-5.24419643 247.28260241 -5.26011635 225.25543526 -5.28342474 203.22824781 C-5.3080226 179.93987751 -5.321734 156.65152857 -5.32293582 133.36314267 C-5.32385311 120.66829356 -5.32961912 107.97348754 -5.34775543 95.27865028 C-5.36314374 84.46909595 -5.36828438 73.65959802 -5.36001733 62.85003481 C-5.35610633 57.33404873 -5.35706246 51.81817628 -5.37107468 46.30220413 C-5.38378641 41.2520221 -5.38264 36.20203941 -5.37048396 31.15185776 C-5.36852224 29.32544784 -5.37162728 27.49902393 -5.38032833 25.67263369 C-5.45753902 8.36939547 -5.45753902 8.36939547 -2 1 C-1.34 0.67 -0.68 0.34 0 0 Z " fill="#646464" transform="translate(474,318)"/>
<path d="M0 0 C2.97 0.495 2.97 0.495 6 1 C6 1.66 6 2.32 6 3 C6.88558594 3.25523437 7.77117187 3.51046875 8.68359375 3.7734375 C16.80840301 6.77837284 23.39299023 13.159858 27 21 C29.96913417 27.54070137 30.37937648 32.86613104 30.1875 40 C30.16719727 41.44826172 30.16719727 41.44826172 30.14648438 42.92578125 C30.11145458 45.28445425 30.06234084 47.64191771 30 50 C29.67 50 29.34 50 29 50 C28.99613281 48.24623047 28.99613281 48.24623047 28.9921875 46.45703125 C28.95465502 44.90881632 28.91550734 43.36063995 28.875 41.8125 C28.87757813 41.04357422 28.88015625 40.27464844 28.8828125 39.48242188 C28.7295968 35.02001475 28.53487007 33.52435296 25.21875 30.2734375 C24.1565625 29.52320313 23.094375 28.77296875 22 28 C20.4923755 26.31363651 19.03232574 24.58342849 17.625 22.8125 C16.4803125 21.38164063 16.4803125 21.38164063 15.3125 19.921875 C14.549375 18.95765625 13.78625 17.9934375 13 17 C11.54180798 15.18738631 10.08348298 13.37487958 8.625 11.5625 C7.41096939 10.04621073 6.20211107 8.52575635 5 7 C4.43023437 6.28714844 3.86046875 5.57429687 3.2734375 4.83984375 C2 3 2 3 2 1 C1.34 0.67 0.68 0.34 0 0 Z " fill="#9A9A9A" transform="translate(245,824)"/>
<path d="M0 0 C0.33 0 0.66 0 1 0 C0.67 4.62 0.34 9.24 0 14 C-0.66 14 -1.32 14 -2 14 C-2 18.29 -2 22.58 -2 27 C-2.99 27 -3.98 27 -5 27 C-8.47762171 20.94220734 -10.14740553 17.45481469 -10.0625 10.375 C-10.05798828 9.66859375 -10.05347656 8.9621875 -10.04882812 8.234375 C-10.03703875 6.48954725 -10.01910324 4.744763 -10 3 C-9.04287109 2.80083984 -9.04287109 2.80083984 -8.06640625 2.59765625 C-7.24011719 2.42105469 -6.41382813 2.24445312 -5.5625 2.0625 C-4.73878906 1.88847656 -3.91507813 1.71445312 -3.06640625 1.53515625 C-1.02338796 1.19247006 -1.02338796 1.19247006 0 0 Z " fill="#818181" transform="translate(655,776)"/>
<path d="M0 0 C0.33 0 0.66 0 1 0 C1.24924672 22.81992201 1.24924672 22.81992201 -4 32 C-4.66 32 -5.32 32 -6 32 C-6.33 32.99 -6.66 33.98 -7 35 C-7.33 35 -7.66 35 -8 35 C-7.66576293 23.21814328 -6.90798924 10.0033724 0 0 Z " fill="#7F7F7F" transform="translate(699,759)"/>
<path d="M0 0 C0.99 0.33 1.98 0.66 3 1 C2.38125 1.0825 1.7625 1.165 1.125 1.25 C-1.15052132 1.77647907 -1.15052132 1.77647907 -1.90625 3.8125 C-3.15269 6.30537999 -4.62337161 7.822506 -6.625 9.75 C-7.57246094 10.67039062 -7.57246094 10.67039062 -8.5390625 11.609375 C-9.02117188 12.06828125 -9.50328125 12.5271875 -10 13 C-10 9.07575145 -8.73405902 8.22546662 -6.125 5.375 C-5.04605469 4.18003906 -5.04605469 4.18003906 -3.9453125 2.9609375 C-2 1 -2 1 0 0 Z " fill="#868686" transform="translate(661,270)"/>
<path d="M0 0 C0.99 0 1.98 0 3 0 C3 6.27 3 12.54 3 19 C2.67 19 2.34 19 2 19 C1.67 14.05 1.34 9.1 1 4 C0.01 4.495 0.01 4.495 -1 5 C-0.67 3.35 -0.34 1.7 0 0 Z " fill="#919191" transform="translate(698,756)"/>
</svg>
